<svg xmlns="http://www.w3.org/2000/svg" width="46" height="58" viewBox="0 0 46 58">
    <g fill="#494949" fill-rule="evenodd">
        <path d="M39.135 3.039l3.104 3.104L40 8.38l-3.104-3.104 2.24-2.238zM19.398 28.983l-4.194 1.089 1.09-4.192L35.116 7.056l3.104 3.104-18.823 18.823zM34.226 4.389L14.272 24.343a1.248 1.248 0 0 0-.328.572l-1.713 6.597a1.258 1.258 0 0 0 1.534 1.535l6.596-1.714c.217-.056.415-.17.574-.328L40.888 11.05l.001-.001.001-.001 4.017-4.017a1.257 1.257 0 0 0 0-1.78L40.025.37a1.26 1.26 0 0 0-1.78 0L34.23 4.387l-.003.002z"/>
        <path d="M44.019 13.636c-.695 0-1.258.563-1.258 1.258v40.432H3.287V7.218h23.289a1.259 1.259 0 0 0 0-2.517H2.028C1.333 4.701.77 5.264.77 5.96v50.626c0 .696.563 1.26 1.258 1.26h41.99c.695 0 1.258-.564 1.258-1.26v-41.69c0-.696-.563-1.259-1.257-1.259"/>
    </g>
</svg>
