<svg xmlns="http://www.w3.org/2000/svg" width="50" height="59" viewBox="0 0 50 59">
    <g fill="#494949" fill-rule="evenodd">
        <path d="M15.771 13.472c0-.035.013-.072.013-.096.397-8.632 6.524-9.558 9.149-9.558h.144c3.25.072 8.775 1.396 9.149 9.558 0 .036 0 .073.012.096.012.084.855 8.271-2.974 12.58-1.516 1.71-3.539 2.552-6.199 2.576h-.121c-2.648-.024-4.683-.866-6.188-2.576-3.816-4.285-2.997-12.508-2.985-12.58m9.041 18.406h.385c3.527-.059 6.381-1.3 8.487-3.67 4.634-5.226 3.864-14.182 3.78-15.037-.301-6.416-3.335-9.485-5.838-10.918-1.867-1.07-4.045-1.649-6.477-1.697h-.205c-1.336 0-3.96.217-6.476 1.648-2.528 1.433-5.61 4.502-5.911 10.967-.084.855-.854 9.811 3.78 15.036 2.095 2.371 4.948 3.612 8.475 3.671"/>
        <path d="M49.743 46.734v-.036c0-.097-.012-.193-.012-.301-.072-2.384-.23-7.957-5.453-9.739-.036-.012-.084-.024-.12-.036-5.43-1.385-9.944-4.515-9.992-4.55a1.622 1.622 0 0 0-2.263.396 1.624 1.624 0 0 0 .397 2.264c.205.144 4.996 3.479 10.99 5.02 2.805.999 3.119 3.996 3.203 6.741 0 .108 0 .205.012.301.012 1.084-.061 2.757-.253 3.719-1.95 1.108-9.594 4.937-21.223 4.937-11.58 0-19.273-3.841-21.235-4.948-.193-.963-.277-2.637-.253-3.72 0-.097.012-.193.012-.301.085-2.745.398-5.742 3.202-6.742 5.995-1.54 10.786-4.887 10.99-5.02a1.622 1.622 0 0 0 .398-2.262 1.623 1.623 0 0 0-2.263-.398c-.048.036-4.538 3.166-9.992 4.551-.048.012-.084.024-.12.036C.543 38.44.387 44.013.315 46.384c0 .109 0 .205-.012.301v.037c-.012.626-.024 3.84.614 5.452.12.314.337.579.626.759.36.241 9.016 5.754 23.498 5.754 14.48 0 23.138-5.524 23.498-5.754.277-.18.506-.445.626-.759.602-1.6.59-4.814.578-5.44"/>
    </g>
</svg>
