<svg xmlns="http://www.w3.org/2000/svg" width="58" height="58" viewBox="0 0 58 58">
    <path fill="#494949" fill-rule="evenodd" d="M56.464 45.983L37.889 56.78c-.91.525-2.39.525-3.3 0l-.653-.373-.466-.268L1.067 37.424c-.793-.454-.77-1.2.07-1.643.78-.408 2.006-.351 2.764.094L36.22 54.53 53.7 44.375c.758-.444 1.994-.444 2.764 0 .746.454.758 1.166 0 1.608M1.102 29.951c.78-.408 2.006-.35 2.763.094l32.322 18.667 17.478-10.167c.758-.444 1.994-.444 2.753 0 .769.442.769 1.154.01 1.596L37.856 50.939c-.91.524-2.391.524-3.3 0l-.653-.374-.455-.268L1.032 31.594c-.781-.454-.77-1.2.07-1.643m55.362 4.36L37.889 45.109c-.91.524-2.39.524-3.3 0l-.653-.374-.466-.268L1.067 25.754c-.793-.456-.77-1.202.07-1.645.78-.408 2.006-.35 2.764.093l32.32 18.656L53.69 32.714c.758-.443 1.994-.443 2.763 0 .758.443.77 1.155.012 1.597M1.102 18.279c.78-.408 2.006-.35 2.763.093l32.322 18.656 17.478-10.155c.758-.444 1.994-.444 2.753 0 .769.442.769 1.154.01 1.597L37.856 39.267c-.91.525-2.391.525-3.3 0l-.653-.373-.455-.268L1.032 19.923c-.781-.466-.77-1.212.07-1.644m7.52-7.358a5.384 5.384 0 0 0-.63-.302l9.9-5.749c.152.129.327.245.525.361 1.807 1.05 4.746 1.038 6.542 0 .209-.116.384-.244.536-.385l24.089 13.911a5.213 5.213 0 0 0-.897.409c-1.808 1.048-1.796 2.74.023 3.789.28.163.583.292.909.408l-9.992 5.807a3.876 3.876 0 0 0-.712-.525c-1.82-1.05-4.745-1.05-6.541 0-.14.081-.257.163-.373.257L7.98 15.026c.233-.093.455-.198.653-.315 1.808-1.038 1.796-2.74-.011-3.79m-6.716 3.79L32.84 32.562c1.785 1.038 4.688 1.038 6.46 0l16.569-9.631c1.772-1.038 1.772-2.717-.011-3.742L24.923 1.325c-1.784-1.037-4.687-1.026-6.471 0l-16.57 9.643c-1.771 1.027-1.76 2.705.025 3.743m14.68-4.863c1.084-.629 2.833-.629 3.929 0 1.084.63 1.096 1.645.01 2.275-1.071.63-2.832.63-3.917 0-1.095-.63-1.107-1.645-.022-2.275m20.66 11.929c1.085-.63 2.834-.63 3.919 0s1.096 1.644.01 2.273c-1.071.63-2.832.63-3.917 0-1.084-.629-1.095-1.643-.011-2.273m-13.63-4.641c.303-.093.594-.198.886-.292.22-.069.349-.081.442-.034.059.034.094.081.14.163.199.373.525.699.933 1.003.07.058.14.105.222.152.222.127.467.221.769.291.758.164 1.434-.128 1.353-.594-.023-.164-.105-.304-.21-.455-.256-.385-.583-.747-.758-1.143-.28-.653-.151-1.236.747-1.702 1.026-.525 2.157-.549 3.369-.234.49.14.49.14.874-.081.129-.071.257-.152.385-.222.292-.163.397-.163.689 0 .092.047.174.105.268.151.606.35.606.35.01.712-.43.244-.43.244-.068.536.279.222.489.455.664.712.093.139.035.244-.186.314-.34.105-.677.222-1.015.327-.21.058-.338.07-.432.023a.61.61 0 0 1-.14-.151c-.221-.361-.56-.665-1.013-.934-.06-.034-.13-.069-.2-.104-.15-.07-.29-.14-.477-.187-.653-.151-1.224.093-1.143.501.035.211.152.397.292.583.233.327.478.654.653.991.547 1.097-.641 2.169-2.542 2.274a5.249 5.249 0 0 1-1.936-.244c-.256-.082-.454-.071-.665.058-.198.128-.42.245-.617.361a.559.559 0 0 1-.572.012c-.14-.07-.268-.151-.408-.221-.093-.059-.186-.105-.28-.164-.198-.117-.174-.233.012-.349.152-.094.303-.175.444-.268.337-.199.337-.21.057-.432-.35-.28-.664-.571-.862-.898-.13-.256-.093-.315.315-.455m-1.796 3.918c3.918 2.262 10.26 2.262 14.155 0 3.906-2.262 3.87-5.935-.047-8.197-3.917-2.262-10.26-2.262-14.154 0-3.896 2.262-3.872 5.923.046 8.197"/>
</svg>
